<svg xmlns="http://www.w3.org/2000/svg" xmlns:xlink="http://www.w3.org/1999/xlink" width="1600" zoomAndPan="magnify" viewBox="0 0 1200 1160.999949" height="1548" preserveAspectRatio="xMidYMid meet" version="1.0"><defs><clipPath id="2bf15acb2e"><path d="M 260.609375 171 L 939.359375 171 L 939.359375 989.976562 L 260.609375 989.976562 Z M 260.609375 171 " clip-rule="nonzero"/></clipPath></defs><g clip-path="url(#2bf15acb2e)"><path fill="#1d1c1a" d="M 676.171875 462.433594 C 575.464844 553.707031 474.390625 671.363281 401.769531 786.660156 C 538.261719 825.621094 693.992188 803.296875 777.9375 683.816406 C 866.628906 557.574219 887.773438 376.53125 888.519531 222.613281 C 743.730469 237.058594 569.144531 264.554688 447.085938 348.648438 C 330.707031 428.816406 304.84375 572.019531 338.515625 701.992188 C 342.71875 718.207031 333.925781 731.761719 318.441406 734.246094 C 305.410156 736.34375 293.449219 728.007812 289.738281 712.453125 C 253.5 560.46875 283.542969 400.21875 417.628906 307.492188 C 514.308594 240.632812 641.601562 206.828125 757.410156 188.789062 C 809.511719 180.675781 859.050781 173.304688 911.601562 171.367188 C 947.722656 170.035156 938.351562 221.023438 937.839844 257.542969 C 935.804688 402.066406 910.773438 562.324219 836.242188 687.496094 C 739.183594 850.507812 550.726562 883.058594 375.203125 832.058594 C 349.367188 875.5 327.109375 919.0625 311.867188 966.507812 C 307.097656 981.351562 299.132812 990.902344 284.246094 989.445312 C 271.257812 988.175781 256.5625 975.261719 261.59375 958.542969 C 277.003906 907.386719 300.359375 861.527344 326.542969 814.648438 C 413.046875 659.769531 558.421875 492.625 694.96875 379.820312 C 705.785156 370.878906 722.023438 378.691406 727.429688 386.929688 C 734.675781 397.957031 733.679688 413.953125 721.769531 422.746094 C 705.304688 434.898438 691.390625 448.628906 676.171875 462.425781 Z M 676.171875 462.433594 " fill-opacity="1" fill-rule="nonzero"/></g></svg>