<svg xmlns="http://www.w3.org/2000/svg" xmlns:xlink="http://www.w3.org/1999/xlink" width="1600" zoomAndPan="magnify" viewBox="0 0 1200 1160.999949" height="1548" preserveAspectRatio="xMidYMid meet" version="1.0"><defs><clipPath id="93d68945fc"><path d="M 448 891 L 758 891 L 758 1076.847656 L 448 1076.847656 Z M 448 891 " clip-rule="nonzero"/></clipPath><clipPath id="d78d3779be"><path d="M 262 87 L 943.636719 87 L 943.636719 861 L 262 861 Z M 262 87 " clip-rule="nonzero"/></clipPath></defs><g clip-path="url(#93d68945fc)"><path fill="#1a1a1a" d="M 726.683594 891.332031 L 479.058594 891.332031 C 461.984375 891.332031 448.117188 905.1875 448.117188 922.25 C 448.117188 1007.5625 517.546875 1076.847656 602.824219 1076.847656 C 688.195312 1076.847656 757.53125 1007.464844 757.53125 922.25 C 757.625 905.1875 743.757812 891.332031 726.683594 891.332031 Z M 602.917969 1015.007812 C 562.542969 1015.007812 528.109375 989.179688 515.375 953.167969 L 690.460938 953.167969 C 677.628906 989.179688 643.292969 1015.007812 602.917969 1015.007812 Z M 602.917969 1015.007812 " fill-opacity="1" fill-rule="nonzero"/></g><g clip-path="url(#d78d3779be)"><path fill="#1a1a1a" d="M 912.710938 286.140625 C 893.089844 243.25 865.261719 205.449219 829.980469 173.871094 C 794.699219 142.386719 754.230469 118.914062 709.515625 104.207031 C 662.820312 88.84375 613.859375 83.847656 564.148438 89.3125 C 490.378906 97.515625 419.910156 130.980469 365.667969 183.675781 C 311.332031 236.371094 275.863281 305.84375 265.769531 379.277344 C 256.902344 443.660156 266.050781 508.515625 292.277344 566.679688 C 317.371094 622.390625 357.179688 670.464844 407.363281 705.722656 C 432.929688 723.726562 448.210938 752.382812 448.210938 782.359375 L 448.210938 829.492188 C 448.210938 846.554688 462.078125 860.410156 479.152344 860.410156 L 726.777344 860.410156 C 743.851562 860.410156 757.71875 846.554688 757.71875 829.492188 L 757.71875 782.453125 C 757.71875 752.476562 773.285156 723.632812 799.414062 705.0625 C 842.996094 674.234375 879.125 633.136719 904.03125 586.191406 C 929.785156 537.644531 943.367188 482.6875 943.367188 427.351562 C 943.367188 378.144531 933.085938 330.636719 912.710938 286.140625 Z M 763.664062 654.535156 C 721.117188 684.605469 695.742188 732.398438 695.742188 782.359375 L 695.742188 798.480469 L 633.859375 798.480469 L 633.859375 520.203125 L 695.742188 520.203125 C 712.816406 520.203125 726.683594 506.347656 726.683594 489.285156 C 726.683594 472.222656 712.816406 458.367188 695.742188 458.367188 L 510 458.367188 C 492.925781 458.367188 479.058594 472.222656 479.058594 489.285156 C 479.058594 506.347656 492.925781 520.203125 510 520.203125 L 571.882812 520.203125 L 571.882812 798.574219 L 510 798.574219 L 510 782.359375 C 510 732.210938 484.90625 684.605469 442.832031 655.101562 C 356.988281 594.769531 312.652344 492.300781 326.992188 387.667969 C 343.972656 264.179688 446.605469 164.539062 570.9375 150.777344 C 651.5 141.914062 728.757812 166.425781 788.566406 219.96875 C 847.523438 272.757812 881.390625 348.359375 881.390625 427.445312 C 881.484375 517.472656 837.429688 602.40625 763.664062 654.535156 Z M 763.664062 654.535156 " fill-opacity="1" fill-rule="nonzero"/></g></svg>