<svg xmlns="http://www.w3.org/2000/svg" xmlns:xlink="http://www.w3.org/1999/xlink" width="1600" zoomAndPan="magnify" viewBox="0 0 1200 1160.999949" height="1548" preserveAspectRatio="xMidYMid meet" version="1.0"><defs><clipPath id="3fa95197ed"><path d="M 75.449219 83.605469 L 1119 83.605469 L 1119 1076 L 75.449219 1076 Z M 75.449219 83.605469 " clip-rule="nonzero"/></clipPath></defs><g clip-path="url(#3fa95197ed)"><path fill="#000000" d="M 902.753906 1075.820312 C 900.21875 1075.835938 897.730469 1075.507812 895.285156 1074.835938 C 892.84375 1074.167969 890.535156 1073.175781 888.367188 1071.867188 L 597.328125 896.175781 L 306.285156 1071.867188 C 305.136719 1072.558594 303.941406 1073.164062 302.703125 1073.679688 C 301.464844 1074.199219 300.195312 1074.625 298.894531 1074.957031 C 297.59375 1075.285156 296.277344 1075.523438 294.941406 1075.660156 C 293.605469 1075.796875 292.265625 1075.839844 290.925781 1075.78125 C 289.585938 1075.722656 288.253906 1075.566406 286.9375 1075.3125 C 285.617188 1075.0625 284.324219 1074.710938 283.058594 1074.269531 C 281.789062 1073.828125 280.5625 1073.292969 279.371094 1072.671875 C 278.183594 1072.050781 277.046875 1071.34375 275.960938 1070.554688 C 274.875 1069.761719 273.851562 1068.898438 272.894531 1067.960938 C 271.933594 1067.019531 271.050781 1066.015625 270.238281 1064.945312 C 269.425781 1063.875 268.699219 1062.753906 268.050781 1061.578125 C 267.40625 1060.402344 266.847656 1059.183594 266.378906 1057.925781 C 265.910156 1056.667969 265.539062 1055.382812 265.257812 1054.070312 C 264.976562 1052.757812 264.796875 1051.429688 264.710938 1050.089844 C 264.625 1048.75 264.640625 1047.414062 264.75 1046.074219 C 264.863281 1044.738281 265.070312 1043.414062 265.375 1042.109375 L 342.640625 710.875 L 85.152344 488.023438 C 84.136719 487.144531 83.191406 486.195312 82.316406 485.179688 C 81.441406 484.160156 80.644531 483.085938 79.929688 481.953125 C 79.210938 480.816406 78.582031 479.636719 78.035156 478.410156 C 77.492188 477.183594 77.039062 475.921875 76.679688 474.628906 C 76.320312 473.335938 76.058594 472.023438 75.890625 470.691406 C 75.726562 469.363281 75.65625 468.023438 75.6875 466.683594 C 75.714844 465.34375 75.839844 464.007812 76.066406 462.6875 C 76.289062 461.363281 76.609375 460.0625 77.027344 458.789062 C 77.441406 457.511719 77.949219 456.273438 78.542969 455.070312 C 79.140625 453.867188 79.824219 452.714844 80.589844 451.613281 C 81.355469 450.511719 82.195312 449.472656 83.117188 448.492188 C 84.035156 447.515625 85.019531 446.609375 86.070312 445.773438 C 87.121094 444.941406 88.230469 444.1875 89.390625 443.515625 C 90.554688 442.84375 91.757812 442.261719 93.003906 441.765625 C 94.253906 441.269531 95.53125 440.871094 96.835938 440.5625 C 98.140625 440.253906 99.464844 440.042969 100.800781 439.929688 L 439.617188 411.160156 L 572.066406 98.8125 C 572.675781 97.675781 573.359375 96.582031 574.113281 95.53125 C 574.871094 94.484375 575.695312 93.492188 576.585938 92.558594 C 577.476562 91.621094 578.425781 90.75 579.433594 89.941406 C 580.445312 89.132812 581.503906 88.398438 582.609375 87.730469 C 583.71875 87.066406 584.867188 86.480469 586.054688 85.972656 C 587.242188 85.460938 588.460938 85.035156 589.707031 84.691406 C 590.949219 84.34375 592.214844 84.085938 593.496094 83.910156 C 594.777344 83.738281 596.0625 83.652344 597.355469 83.652344 C 598.648438 83.652344 599.933594 83.738281 601.214844 83.910156 C 602.496094 84.085938 603.757812 84.34375 605.003906 84.691406 C 606.25 85.035156 607.464844 85.460938 608.652344 85.972656 C 609.839844 86.480469 610.988281 87.066406 612.097656 87.730469 C 613.207031 88.398438 614.265625 89.132812 615.273438 89.941406 C 616.28125 90.75 617.230469 91.621094 618.121094 92.558594 C 619.015625 93.492188 619.835938 94.484375 620.59375 95.53125 C 621.351562 96.582031 622.035156 97.675781 622.640625 98.8125 L 755.039062 411.160156 L 1093.90625 439.929688 C 1095.242188 440.042969 1096.5625 440.257812 1097.871094 440.566406 C 1099.175781 440.878906 1100.449219 441.28125 1101.695312 441.777344 C 1102.941406 442.273438 1104.144531 442.859375 1105.304688 443.53125 C 1106.464844 444.207031 1107.570312 444.960938 1108.617188 445.796875 C 1109.667969 446.628906 1110.652344 447.539062 1111.566406 448.515625 C 1112.484375 449.496094 1113.324219 450.535156 1114.089844 451.636719 C 1114.851562 452.742188 1115.53125 453.890625 1116.128906 455.09375 C 1116.722656 456.296875 1117.226562 457.535156 1117.640625 458.808594 C 1118.054688 460.085938 1118.375 461.386719 1118.597656 462.707031 C 1118.820312 464.03125 1118.945312 465.363281 1118.972656 466.703125 C 1119.003906 468.042969 1118.933594 469.378906 1118.765625 470.710938 C 1118.597656 472.039062 1118.332031 473.351562 1117.972656 474.644531 C 1117.613281 475.933594 1117.160156 477.191406 1116.617188 478.417969 C 1116.070312 479.644531 1115.441406 480.824219 1114.722656 481.957031 C 1114.007812 483.089844 1113.210938 484.164062 1112.335938 485.183594 C 1111.460938 486.199219 1110.515625 487.144531 1109.503906 488.023438 L 852.234375 710.875 L 929.496094 1042.109375 C 929.730469 1043.113281 929.910156 1044.125 930.03125 1045.148438 C 930.152344 1046.175781 930.214844 1047.203125 930.21875 1048.234375 C 930.226562 1049.265625 930.171875 1050.292969 930.0625 1051.316406 C 929.949219 1052.34375 929.78125 1053.359375 929.558594 1054.363281 C 929.332031 1055.371094 929.050781 1056.359375 928.714844 1057.335938 C 928.375 1058.308594 927.984375 1059.261719 927.542969 1060.195312 C 927.097656 1061.125 926.601562 1062.027344 926.054688 1062.902344 C 925.507812 1063.777344 924.917969 1064.617188 924.273438 1065.425781 C 923.632812 1066.234375 922.949219 1067.003906 922.222656 1067.734375 C 921.496094 1068.464844 920.726562 1069.152344 919.921875 1069.796875 C 919.117188 1070.441406 918.28125 1071.039062 917.40625 1071.589844 C 916.535156 1072.136719 915.632812 1072.636719 914.707031 1073.085938 C 913.777344 1073.535156 912.824219 1073.929688 911.851562 1074.269531 C 910.878906 1074.613281 909.890625 1074.898438 908.882812 1075.128906 C 907.878906 1075.359375 906.863281 1075.53125 905.839844 1075.644531 C 904.8125 1075.761719 903.785156 1075.820312 902.753906 1075.820312 Z M 597.328125 836.605469 C 599.828125 836.617188 602.277344 836.960938 604.683594 837.640625 C 607.089844 838.320312 609.359375 839.3125 611.496094 840.613281 L 861.238281 991.265625 L 795.015625 707.199219 C 794.734375 705.988281 794.535156 704.761719 794.421875 703.523438 C 794.308594 702.285156 794.277344 701.046875 794.332031 699.804688 C 794.386719 698.5625 794.523438 697.328125 794.746094 696.105469 C 794.96875 694.882812 795.273438 693.679688 795.65625 692.496094 C 796.042969 691.316406 796.507812 690.164062 797.046875 689.046875 C 797.589844 687.925781 798.203125 686.847656 798.890625 685.8125 C 799.582031 684.777344 800.335938 683.792969 801.15625 682.859375 C 801.980469 681.925781 802.859375 681.054688 803.800781 680.238281 L 1024.441406 489.121094 L 733.894531 464.46875 C 732.660156 464.367188 731.441406 464.183594 730.230469 463.917969 C 729.019531 463.652344 727.835938 463.304688 726.671875 462.875 C 725.511719 462.449219 724.382812 461.945312 723.289062 461.367188 C 722.195312 460.785156 721.144531 460.136719 720.136719 459.414062 C 719.132812 458.691406 718.179688 457.90625 717.277344 457.054688 C 716.378906 456.203125 715.542969 455.296875 714.765625 454.332031 C 713.988281 453.367188 713.277344 452.355469 712.640625 451.292969 C 712 450.234375 711.433594 449.136719 710.941406 448 L 597.328125 179.851562 L 483.765625 447.835938 C 483.273438 448.972656 482.710938 450.070312 482.070312 451.128906 C 481.429688 452.191406 480.722656 453.203125 479.945312 454.167969 C 479.167969 455.128906 478.328125 456.039062 477.429688 456.890625 C 476.53125 457.738281 475.578125 458.527344 474.570312 459.25 C 473.566406 459.96875 472.515625 460.621094 471.421875 461.203125 C 470.328125 461.78125 469.199219 462.285156 468.035156 462.710938 C 466.875 463.140625 465.6875 463.484375 464.476562 463.753906 C 463.269531 464.019531 462.046875 464.203125 460.8125 464.304688 L 170.265625 488.957031 L 390.910156 680.074219 C 391.847656 680.890625 392.730469 681.761719 393.550781 682.695312 C 394.375 683.628906 395.128906 684.613281 395.816406 685.648438 C 396.503906 686.683594 397.121094 687.761719 397.660156 688.878906 C 398.203125 690 398.667969 691.148438 399.050781 692.332031 C 399.4375 693.515625 399.742188 694.71875 399.960938 695.941406 C 400.183594 697.164062 400.320312 698.398438 400.375 699.640625 C 400.429688 700.882812 400.402344 702.121094 400.285156 703.359375 C 400.171875 704.597656 399.976562 705.820312 399.695312 707.03125 L 333.414062 991.265625 L 583.160156 840.613281 C 585.292969 839.3125 587.5625 838.320312 589.96875 837.640625 C 592.375 836.960938 594.828125 836.617188 597.328125 836.605469 Z M 597.328125 836.605469 " fill-opacity="1" fill-rule="nonzero"/></g></svg>