<svg xmlns="http://www.w3.org/2000/svg" xmlns:xlink="http://www.w3.org/1999/xlink" width="1600" zoomAndPan="magnify" viewBox="0 0 1200 1160.999949" height="1548" preserveAspectRatio="xMidYMid meet" version="1.0"><defs><clipPath id="fed3640522"><path d="M 142.40625 122.90625 L 1057.40625 122.90625 L 1057.40625 1037.90625 L 142.40625 1037.90625 Z M 142.40625 122.90625 " clip-rule="nonzero"/></clipPath></defs><g clip-path="url(#fed3640522)"><path fill="#000000" d="M 380.59375 123.011719 C 370.289062 122.472656 359.730469 123.875 349.492188 127.390625 L 266.019531 156.078125 C 172.960938 188.015625 120.507812 289.277344 151.089844 383.34375 C 186.539062 492.25 257.167969 645.375 396.054688 784.257812 C 534.9375 923.140625 688.058594 993.773438 796.964844 1029.21875 C 891.03125 1059.804688 992.296875 1007.351562 1024.234375 914.292969 L 1052.921875 830.820312 C 1052.949219 830.820312 1052.980469 830.820312 1053.011719 830.820312 C 1067.054688 789.847656 1046.761719 744.222656 1006.984375 727.152344 L 852.195312 660.75 C 817.613281 645.929688 777.226562 653.765625 750.582031 680.410156 L 687.21875 743.683594 C 665.457031 733.277344 615.203125 706.878906 544.316406 635.992188 C 473.429688 565.109375 447.023438 514.835938 436.628906 493.089844 L 499.902344 429.726562 C 526.503906 403.125 534.375 362.746094 519.5625 328.113281 L 453.160156 173.414062 L 453.160156 173.328125 C 440.34375 143.46875 411.503906 124.625 380.59375 123.011719 Z M 371.746094 192.273438 C 379.273438 189.6875 386.90625 193.03125 390.066406 200.40625 L 456.46875 355.105469 C 460.324219 364.125 458.261719 374.308594 451.375 381.199219 L 370.226562 462.4375 C 369.039062 463.621094 367.949219 464.882812 366.949219 466.226562 C 365.949219 467.566406 365.050781 468.976562 364.257812 470.449219 C 363.464844 471.921875 362.78125 473.445312 362.210938 475.019531 C 361.640625 476.59375 361.1875 478.199219 360.851562 479.839844 C 360.515625 481.480469 360.300781 483.136719 360.207031 484.804688 C 360.113281 486.476562 360.140625 488.144531 360.292969 489.8125 C 360.441406 491.480469 360.714844 493.128906 361.105469 494.753906 C 361.496094 496.382812 362.003906 497.972656 362.628906 499.527344 C 362.628906 499.527344 398.636719 587.367188 495.789062 684.519531 C 592.945312 781.675781 680.785156 817.683594 680.785156 817.683594 C 682.339844 818.304688 683.929688 818.8125 685.554688 819.207031 C 687.183594 819.597656 688.832031 819.867188 690.496094 820.019531 C 692.164062 820.167969 693.832031 820.199219 695.503906 820.105469 C 697.175781 820.011719 698.832031 819.796875 700.472656 819.460938 C 702.113281 819.125 703.71875 818.671875 705.292969 818.101562 C 706.863281 817.527344 708.386719 816.847656 709.863281 816.054688 C 711.335938 815.257812 712.742188 814.363281 714.085938 813.363281 C 715.429688 812.363281 716.691406 811.269531 717.875 810.085938 L 799.109375 728.9375 C 806.050781 721.996094 816.226562 719.996094 825.207031 723.84375 L 979.90625 790.246094 C 987.257812 793.402344 990.652344 800.941406 988.039062 808.566406 L 959.351562 892.039062 C 939.214844 950.710938 876.726562 982.90625 818.234375 963.890625 C 716.839844 930.886719 573.835938 864.984375 444.582031 735.730469 C 315.328125 606.476562 249.425781 463.46875 216.421875 362.074219 C 197.402344 303.585938 229.601562 241.09375 288.273438 220.960938 Z M 371.746094 192.273438 " fill-opacity="1" fill-rule="nonzero"/></g></svg>